<svg width="80" height="61" viewBox="0 0 80 61" fill="none" xmlns="http://www.w3.org/2000/svg">
<path d="M38.1758 22.0586C39.2496 21.5083 40.5103 21.4735 41.6074 21.9551L41.8242 22.0586L70.8613 36.9404C73.6716 38.3807 73.7598 42.317 71.125 43.9131L70.8613 44.0596L41.8242 58.9414C40.7504 59.4917 39.4897 59.5265 38.3926 59.0449L38.1758 58.9414L9.13867 44.0596C6.32839 42.6193 6.24021 38.683 8.875 37.0869L9.13867 36.9404L38.1758 22.0586Z" stroke="#5528FF" stroke-width="2"/>
<path d="M38.1758 12.0586C39.2496 11.5083 40.5103 11.4735 41.6074 11.9551L41.8242 12.0586L70.8613 26.9404C73.6716 28.3807 73.7598 32.317 71.125 33.9131L70.8613 34.0596L41.8242 48.9414C40.7504 49.4917 39.4897 49.5265 38.3926 49.0449L38.1758 48.9414L9.13867 34.0596C6.32839 32.6193 6.24021 28.683 8.875 27.0869L9.13867 26.9404L38.1758 12.0586Z" fill="white" stroke="#5528FF" stroke-width="2"/>
<path d="M38.1758 2.05859C39.2496 1.50833 40.5103 1.47354 41.6074 1.95508L41.8242 2.05859L70.8613 16.9404C73.6716 18.3807 73.7598 22.317 71.125 23.9131L70.8613 24.0596L41.8242 38.9414C40.7504 39.4917 39.4897 39.5265 38.3926 39.0449L38.1758 38.9414L9.13867 24.0596C6.32839 22.6193 6.24021 18.683 8.875 17.0869L9.13867 16.9404L38.1758 2.05859Z" fill="white" stroke="#5528FF" stroke-width="2"/>
</svg>
